<svg width="15" height="15" viewBox="0 0 15 15" fill="none" xmlns="http://www.w3.org/2000/svg">
<g id="Group 1592">
<path id="Vector" d="M10.5481 7.49989C10.5481 9.18408 9.18286 10.5493 7.49867 10.5493C5.81447 10.5493 4.44922 9.18408 4.44922 7.49989C4.44922 5.81569 5.81447 4.45044 7.49867 4.45044C9.18286 4.45044 10.5481 5.81569 10.5481 7.49989Z" fill="white"/>
<path id="Vector_2" d="M14.6317 2.10452C14.4851 1.70729 14.2513 1.34775 13.9474 1.05262C13.6523 0.748748 13.293 0.514886 12.8955 0.368297C12.5731 0.2431 12.0889 0.0940797 11.1969 0.053482C10.2321 0.00948092 9.94279 0 7.50012 0C5.05721 0 4.76792 0.00923782 3.8033 0.0532389C2.91137 0.0940797 2.42687 0.2431 2.10476 0.368297C1.70729 0.514886 1.34775 0.748748 1.05287 1.05262C0.748991 1.34775 0.515129 1.70705 0.368297 2.10452C0.2431 2.42687 0.0940797 2.91137 0.053482 3.8033C0.00948092 4.76792 0 5.05721 0 7.50012C0 9.94279 0.00948092 10.2321 0.053482 11.1969C0.0940797 12.0889 0.2431 12.5731 0.368297 12.8955C0.515129 13.293 0.748748 13.6523 1.05262 13.9474C1.34775 14.2513 1.70705 14.4851 2.10452 14.6317C2.42687 14.7571 2.91137 14.9062 3.8033 14.9468C4.76792 14.9908 5.05697 15 7.49988 15C9.94303 15 10.2323 14.9908 11.1967 14.9468C12.0886 14.9062 12.5731 14.7571 12.8955 14.6317C13.6933 14.3239 14.3239 13.6933 14.6317 12.8955C14.7569 12.5731 14.9059 12.0889 14.9468 11.1969C14.9908 10.2321 15 9.94279 15 7.50012C15 5.05721 14.9908 4.76792 14.9468 3.8033C14.9062 2.91137 14.7571 2.42687 14.6317 2.10452ZM7.50012 12.1975C4.90552 12.1975 2.80221 10.0945 2.80221 7.49988C2.80221 4.90527 4.90552 2.80221 7.50012 2.80221C10.0945 2.80221 12.1978 4.90527 12.1978 7.49988C12.1978 10.0945 10.0945 12.1975 7.50012 12.1975ZM12.3835 3.71433C11.7772 3.71433 11.2857 3.22278 11.2857 2.61649C11.2857 2.01019 11.7772 1.51865 12.3835 1.51865C12.9898 1.51865 13.4814 2.01019 13.4814 2.61649C13.4811 3.22278 12.9898 3.71433 12.3835 3.71433Z" fill="white"/>
</g>
</svg>
