<svg width="15" height="15" viewBox="0 0 15 15" fill="none" xmlns="http://www.w3.org/2000/svg">
<path d="M15 7.01468C14.9996 6.63101 14.8891 6.25552 14.6816 5.9328C14.4742 5.61008 14.1784 5.35369 13.8295 5.19408C13.4806 5.03448 13.0933 4.97837 12.7134 5.03241C12.3336 5.08645 11.9772 5.24838 11.6867 5.49896C10.6345 4.94153 9.38182 4.60331 8.07279 4.52815L8.39848 2.574L9.76388 2.78695C9.82793 3.13911 10.0145 3.45725 10.2907 3.68501C10.5668 3.91276 10.9146 4.03545 11.2726 4.03134C11.6305 4.02722 11.9754 3.89657 12.2462 3.66253C12.517 3.42848 12.6963 3.10614 12.7522 2.7526C12.8082 2.39906 12.7372 2.03712 12.5518 1.7309C12.3665 1.42468 12.0788 1.19393 11.7396 1.07952C11.4005 0.965103 11.0317 0.974414 10.6988 1.1058C10.3658 1.23718 10.0901 1.48216 9.92046 1.79735L8.06026 1.50924C7.92999 1.48934 7.79712 1.52157 7.69044 1.59894C7.58376 1.67632 7.51186 1.7926 7.4903 1.92261L7.05813 4.52188C5.69274 4.57825 4.37744 4.91647 3.28137 5.49896C2.88188 5.16868 2.36998 5.006 1.85312 5.04509C1.33626 5.08418 0.854642 5.32198 0.509374 5.70859C0.164106 6.09519 -0.0179593 6.60052 0.00139973 7.1185C0.0207588 7.63647 0.240037 8.1268 0.613199 8.48655C0.518453 8.82289 0.469988 9.17057 0.469143 9.52C0.469143 10.8917 1.22074 12.1756 2.5924 13.1214C3.96406 14.0672 5.64263 14.5306 7.48404 14.5306C9.32545 14.5306 11.0604 14.0296 12.3757 13.1214C13.691 12.2132 14.4989 10.8917 14.4989 9.52C14.4985 9.1726 14.4501 8.82692 14.3549 8.49282C14.5577 8.30361 14.7196 8.07482 14.8306 7.82059C14.9415 7.56635 14.9992 7.29207 15 7.01468ZM3.97659 8.7684C3.97659 8.5702 4.03537 8.37645 4.14548 8.21165C4.2556 8.04685 4.41211 7.9184 4.59522 7.84256C4.77834 7.76671 4.97983 7.74686 5.17422 7.78553C5.36862 7.8242 5.54718 7.91964 5.68733 8.05979C5.82748 8.19994 5.92292 8.3785 5.96159 8.5729C6.00026 8.76729 5.98041 8.96878 5.90457 9.1519C5.82872 9.33501 5.70027 9.49153 5.53547 9.60164C5.37067 9.71176 5.17692 9.77053 4.97872 9.77053C4.71294 9.77053 4.45804 9.66495 4.27011 9.47701C4.08217 9.28908 3.97659 9.03418 3.97659 8.7684ZM9.78267 11.9689C9.07185 12.3354 8.28374 12.5265 7.48404 12.5265C6.68434 12.5265 5.89623 12.3354 5.18541 11.9689C5.07621 11.9036 4.99598 11.7991 4.96103 11.6767C4.92608 11.5543 4.93901 11.4232 4.9972 11.31C5.0554 11.1968 5.15449 11.11 5.27436 11.0672C5.39424 11.0244 5.5259 11.0288 5.64263 11.0796C6.21211 11.3729 6.84344 11.526 7.48404 11.526C8.12464 11.526 8.75597 11.3729 9.32545 11.0796C9.44218 11.0288 9.57384 11.0244 9.69372 11.0672C9.81359 11.11 9.91268 11.1968 9.97088 11.31C10.0291 11.4232 10.042 11.5543 10.007 11.6767C9.97209 11.7991 9.89187 11.9036 9.78267 11.9689ZM9.98936 9.77053C9.79116 9.77053 9.59741 9.71176 9.43261 9.60164C9.26781 9.49153 9.13936 9.33501 9.06351 9.1519C8.98767 8.96878 8.96782 8.76729 9.00649 8.5729C9.04515 8.3785 9.1406 8.19994 9.28075 8.05979C9.4209 7.91964 9.59946 7.8242 9.79385 7.78553C9.98825 7.74686 10.1897 7.76671 10.3729 7.84256C10.556 7.9184 10.7125 8.04685 10.8226 8.21165C10.9327 8.37645 10.9915 8.5702 10.9915 8.7684C10.9915 9.03418 10.8859 9.28908 10.698 9.47701C10.51 9.66495 10.2551 9.77053 9.98936 9.77053Z" fill="white"/>
</svg>
