<svg width="15" height="14" viewBox="0 0 15 14" fill="none" xmlns="http://www.w3.org/2000/svg">
<path id="Vector" d="M15 6.41458C14.9996 6.03092 14.8891 5.65543 14.6816 5.3327C14.4742 5.00998 14.1784 4.75359 13.8295 4.59399C13.4806 4.43438 13.0933 4.37827 12.7134 4.43231C12.3336 4.48635 11.9772 4.64828 11.6867 4.89886C10.6345 4.34143 9.38182 4.00321 8.07279 3.92805L8.39848 1.9739L9.76388 2.18685C9.82793 2.53902 10.0145 2.85715 10.2907 3.08491C10.5668 3.31267 10.9146 3.43535 11.2726 3.43124C11.6305 3.42713 11.9754 3.29648 12.2462 3.06243C12.517 2.82839 12.6963 2.50605 12.7522 2.1525C12.8082 1.79896 12.7372 1.43703 12.5518 1.1308C12.3665 0.82458 12.0788 0.593829 11.7396 0.479417C11.4005 0.365006 11.0317 0.374316 10.6988 0.5057C10.3658 0.637085 10.0901 0.882064 9.92046 1.19725L8.06026 0.909139C7.92999 0.889244 7.79712 0.921474 7.69044 0.998846C7.58376 1.07622 7.51186 1.19251 7.4903 1.32252L7.05814 3.92179C5.69274 3.97816 4.37744 4.31637 3.28137 4.89886C2.88188 4.56858 2.36998 4.40591 1.85312 4.44499C1.33626 4.48408 0.854642 4.72189 0.509374 5.10849C0.164106 5.49509 -0.0179593 6.00042 0.00139973 6.5184C0.0207588 7.03637 0.240037 7.5267 0.613199 7.88646C0.518453 8.22279 0.469988 8.57047 0.469143 8.9199C0.469143 10.2916 1.22074 11.5755 2.5924 12.5213C3.96406 13.4671 5.64263 13.9305 7.48404 13.9305C9.32545 13.9305 11.0604 13.4295 12.3757 12.5213C13.691 11.6131 14.4989 10.2916 14.4989 8.9199C14.4985 8.5725 14.4501 8.22682 14.3549 7.89272C14.5577 7.70351 14.7196 7.47472 14.8306 7.22049C14.9415 6.96626 14.9992 6.69197 15 6.41458ZM3.97659 8.1683C3.97659 7.9701 4.03537 7.77635 4.14548 7.61155C4.2556 7.44675 4.41211 7.31831 4.59522 7.24246C4.77834 7.16661 4.97983 7.14676 5.17422 7.18543C5.36862 7.2241 5.54718 7.31954 5.68733 7.45969C5.82748 7.59984 5.92292 7.77841 5.96159 7.9728C6.00026 8.16719 5.98041 8.36869 5.90457 8.5518C5.82872 8.73492 5.70027 8.89143 5.53547 9.00154C5.37067 9.11166 5.17692 9.17043 4.97872 9.17043C4.71294 9.17043 4.45804 9.06485 4.27011 8.87691C4.08217 8.68898 3.97659 8.43408 3.97659 8.1683ZM9.78267 11.3689C9.07185 11.7353 8.28374 11.9264 7.48404 11.9264C6.68434 11.9264 5.89623 11.7353 5.18541 11.3689C5.07621 11.3035 4.99599 11.199 4.96103 11.0766C4.92607 10.9542 4.93901 10.8231 4.9972 10.7099C5.0554 10.5967 5.15449 10.5099 5.27436 10.4671C5.39424 10.4243 5.5259 10.4287 5.64263 10.4795C6.21211 10.7728 6.84344 10.9259 7.48404 10.9259C8.12464 10.9259 8.75597 10.7728 9.32545 10.4795C9.44217 10.4287 9.57384 10.4243 9.69372 10.4671C9.81359 10.5099 9.91268 10.5967 9.97088 10.7099C10.0291 10.8231 10.042 10.9542 10.007 11.0766C9.97209 11.199 9.89187 11.3035 9.78267 11.3689ZM9.98936 9.17043C9.79116 9.17043 9.59741 9.11166 9.43261 9.00154C9.26781 8.89143 9.13936 8.73492 9.06351 8.5518C8.98767 8.36869 8.96782 8.16719 9.00649 7.9728C9.04515 7.77841 9.1406 7.59984 9.28075 7.45969C9.4209 7.31954 9.59946 7.2241 9.79385 7.18543C9.98825 7.14676 10.1897 7.16661 10.3729 7.24246C10.556 7.31831 10.7125 7.44675 10.8226 7.61155C10.9327 7.77635 10.9915 7.9701 10.9915 8.1683C10.9915 8.43408 10.8859 8.68898 10.698 8.87691C10.51 9.06485 10.2551 9.17043 9.98936 9.17043Z" fill="white"/>
</svg>
