<svg width="15" height="16" viewBox="0 0 15 16" fill="none" xmlns="http://www.w3.org/2000/svg">
<path fill-rule="evenodd" clip-rule="evenodd" d="M2 0.510254C0.895431 0.510254 0 1.40568 0 2.51025V13.5103C0 14.6148 0.89543 15.5103 2 15.5103H13C14.1046 15.5103 15 14.6148 15 13.5103V2.51025C15 1.40568 14.1046 0.510254 13 0.510254H2ZM9.87013 6.02042C10.6819 6.60145 11.6768 6.94346 12.75 6.94346L12.7495 4.88087C12.1715 4.88087 11.6327 4.70937 11.1811 4.41585C10.5324 3.99434 10.0643 3.31981 9.91829 2.53378C9.88718 2.36377 9.86963 2.18926 9.86963 2.01025H7.79953L7.79802 10.2781C7.7629 11.2041 6.99828 11.9472 6.06107 11.9472C5.76957 11.9472 5.49513 11.8747 5.2538 11.7482C4.6999 11.4576 4.3206 10.8791 4.3206 10.2131C4.3206 9.25656 5.10128 8.47852 6.06056 8.47852C6.23968 8.47852 6.41127 8.50802 6.57382 8.55853V6.94096V6.45244C6.40575 6.42994 6.23516 6.41544 6.06056 6.41544C3.95936 6.41544 2.25 8.11901 2.25 10.2131C2.25 11.4976 2.89421 12.6347 3.87658 13.3222C4.4952 13.7552 5.24828 14.0103 6.06006 14.0103C8.16077 14.0103 9.87013 12.3072 9.87013 10.2131V6.02042Z" fill="white"/>
</svg>
