<svg width="15" height="12" viewBox="0 0 15 12" fill="none" xmlns="http://www.w3.org/2000/svg">
<path id="Vector" d="M12.7177 0.962809C12.7135 0.954751 12.7066 0.948436 12.6982 0.944996C11.7256 0.499902 10.6993 0.182515 9.64495 0.000778502C9.63537 -0.000997941 9.62548 0.000283606 9.61667 0.00444088C9.60786 0.00859816 9.60059 0.0154195 9.5959 0.0239348C9.45615 0.276947 9.32928 0.536831 9.21579 0.802598C8.07922 0.630498 6.92312 0.630498 5.78655 0.802598C5.67231 0.536157 5.54341 0.276207 5.40045 0.0239348C5.39555 0.0156046 5.38824 0.00894031 5.37949 0.00481004C5.37073 0.000679771 5.36093 -0.000725089 5.35137 0.000778502C4.29687 0.182134 3.2705 0.499545 2.29809 0.945022C2.28977 0.948542 2.28274 0.954552 2.27799 0.962224C0.333365 3.859 -0.199341 6.68456 0.0619865 9.47512C0.0627216 9.48196 0.0648281 9.48858 0.0681807 9.49459C0.0715333 9.5006 0.0760635 9.50588 0.0815018 9.51011C1.21384 10.3464 2.48037 10.9848 3.82705 11.398C3.83653 11.4008 3.84666 11.4007 3.85607 11.3976C3.86548 11.3945 3.87372 11.3886 3.87968 11.3808C4.16892 10.9882 4.4252 10.5725 4.64593 10.1379C4.64896 10.1319 4.6507 10.1254 4.65101 10.1187C4.65133 10.112 4.65022 10.1054 4.64777 10.0991C4.64531 10.0929 4.64156 10.0873 4.63676 10.0826C4.63197 10.0779 4.62623 10.0743 4.61994 10.072C4.21579 9.9178 3.82453 9.73185 3.44983 9.51596C3.44302 9.51197 3.43731 9.50637 3.43319 9.49965C3.42906 9.49293 3.42666 9.48531 3.4262 9.47745C3.42573 9.46958 3.42721 9.46173 3.43051 9.45457C3.43381 9.44742 3.43882 9.44118 3.44511 9.43642C3.52373 9.37766 3.60241 9.31654 3.67748 9.25481C3.68415 9.24933 3.69223 9.24581 3.70079 9.24466C3.70935 9.24351 3.71807 9.24477 3.72595 9.24829C6.18078 10.3658 8.83847 10.3658 11.2642 9.24829C11.2722 9.24454 11.281 9.24311 11.2896 9.24416C11.2983 9.24521 11.3065 9.2487 11.3133 9.25422C11.3884 9.31595 11.4671 9.37766 11.5463 9.43642C11.5526 9.44113 11.5577 9.44733 11.561 9.45446C11.5644 9.46159 11.5659 9.46943 11.5655 9.47729C11.5651 9.48515 11.5627 9.49279 11.5587 9.49954C11.5546 9.50628 11.5489 9.51192 11.5422 9.51596C11.1683 9.73367 10.7767 9.9195 10.3715 10.0715C10.3652 10.0738 10.3595 10.0775 10.3547 10.0823C10.3499 10.087 10.3462 10.0927 10.3438 10.099C10.3414 10.1053 10.3404 10.112 10.3407 10.1187C10.3411 10.1254 10.3429 10.1319 10.346 10.1379C10.5704 10.5701 10.8263 10.9852 11.1116 11.3801C11.1174 11.3882 11.1256 11.3942 11.1351 11.3974C11.1445 11.4006 11.1547 11.4008 11.1643 11.3979C12.5134 10.9861 13.7821 10.3477 14.9159 9.51011C14.9214 9.50609 14.926 9.50094 14.9293 9.49501C14.9327 9.48908 14.9348 9.4825 14.9354 9.47571C15.2482 6.24952 14.4116 3.44713 12.7177 0.962809ZM5.01254 7.77596C4.27346 7.77596 3.66447 7.09941 3.66447 6.26853C3.66447 5.43765 4.26164 4.76106 5.01254 4.76106C5.7693 4.76106 6.37239 5.44353 6.36058 6.26848C6.36058 7.09941 5.76338 7.77596 5.01254 7.77596ZM9.99674 7.77596C9.25768 7.77596 8.6487 7.09941 8.6487 6.26853C8.6487 5.43765 9.24587 4.76106 9.99674 4.76106C10.7536 4.76106 11.3566 5.44353 11.3448 6.26848C11.3448 7.09941 10.7536 7.77596 9.99674 7.77596Z" fill="white"/>
</svg>
