<svg width="15" height="15" viewBox="0 0 15 15" fill="none" xmlns="http://www.w3.org/2000/svg">
<g id="Group">
<path id="Vector" d="M7.60564 6.63379L4.83384 2.75537H3.35547L6.78903 7.55939L7.22124 8.16372L10.1602 12.2793H11.6385L8.03602 7.23813L7.60564 6.63379Z" fill="white"/>
<path id="Vector_2" d="M13.7453 0H1.25469C0.561718 0 0 0.561718 0 1.25469V13.7453C0 14.4383 0.561718 15 1.25469 15H13.7453C14.4383 15 15 14.4383 15 13.7453V1.25469C15 0.561718 14.4383 0 13.7453 0ZM9.70592 12.9545L6.73146 8.7184L3.0078 12.9545H2.04545L6.3047 8.11045L2.04545 2.04545H5.29408L8.11007 6.05588L11.6384 2.04545H12.6007L8.53908 6.66521L12.9545 12.9545H9.70592Z" fill="white"/>
</g>
</svg>
