<svg width="15" height="15" viewBox="0 0 15 15" fill="none" xmlns="http://www.w3.org/2000/svg">
<g id="Group">
<path id="Vector" d="M12.2601 7.14453H2.73992C1.22668 7.14453 0 8.3999 0 9.94668V12.1982C0 13.745 1.22668 15 2.73992 15H12.2601C13.773 15 15 13.745 15 12.1982V9.94668C15 8.3999 13.773 7.14453 12.2601 7.14453ZM4.74005 8.89736H3.85498V13.3935H2.99988V8.89736H2.11542V8.13257H4.74005V8.89736ZM7.2402 13.3935H6.48174V12.9683C6.34075 13.1256 6.19549 13.2456 6.04379 13.3266C5.8921 13.4111 5.74561 13.4504 5.6031 13.4504C5.42694 13.4504 5.29604 13.3932 5.20643 13.2769C5.11836 13.1609 5.0734 12.9889 5.0734 12.7566V9.51206H5.83186V12.4896C5.83186 12.5815 5.84868 12.6475 5.87895 12.6885C5.91168 12.7307 5.96367 12.7501 6.03493 12.7501C6.08997 12.7501 6.16093 12.7232 6.24625 12.6688C6.33219 12.6137 6.41048 12.545 6.48174 12.4599V9.51175H7.2402V13.3935ZM9.99388 12.5922C9.99388 12.8664 9.93425 13.0771 9.81528 13.2241C9.69692 13.371 9.52382 13.4433 9.29965 13.4433C9.15041 13.4433 9.01768 13.4157 8.90238 13.3588C8.78647 13.3026 8.67729 13.2159 8.5779 13.0959V13.3932H7.81026V8.13257H8.5779V9.82692C8.68065 9.70967 8.78922 9.61869 8.90269 9.55771C9.01859 9.49549 9.13511 9.46548 9.25317 9.46548C9.49324 9.46548 9.67613 9.5474 9.80274 9.7128C9.92997 9.8782 9.99327 10.1205 9.99327 10.4382V12.5922H9.99388ZM12.6249 11.5463H11.1735V12.2776C11.1735 12.4815 11.1979 12.6234 11.2475 12.7025C11.2982 12.782 11.3836 12.8207 11.505 12.8207C11.631 12.8207 11.7181 12.7873 11.7689 12.7204C11.8178 12.6528 11.8441 12.5059 11.8441 12.2776V12.101H12.6249V12.3001C12.6249 12.6979 12.5304 12.9977 12.3387 13.2C12.15 13.4004 11.8656 13.4998 11.4876 13.4998C11.1472 13.4998 10.879 13.3939 10.6841 13.1806C10.4899 12.9686 10.3908 12.6744 10.3908 12.3005V10.557C10.3908 10.2215 10.4991 9.94542 10.7141 9.73375C10.9285 9.52207 11.2047 9.41639 11.5444 9.41639C11.8922 9.41639 12.1592 9.51425 12.3454 9.71061C12.5317 9.90728 12.6249 10.1887 12.6249 10.5567V11.5463Z" fill="white"/>
<path id="Vector_2" d="M11.5127 10.0947C11.3916 10.0947 11.3053 10.1294 11.2527 10.202C11.1989 10.2701 11.1738 10.3868 11.1738 10.5497V10.9421H11.8445V10.5497C11.8445 10.3868 11.8176 10.2698 11.7644 10.202C11.7133 10.1297 11.628 10.0947 11.5127 10.0947Z" fill="white"/>
<path id="Vector_3" d="M8.89527 10.0818C8.84144 10.0818 8.78701 10.094 8.73471 10.1193C8.68149 10.144 8.6295 10.185 8.57812 10.2381V12.656C8.63898 12.7185 8.69923 12.7667 8.75795 12.7942C8.81637 12.8208 8.87692 12.8358 8.94145 12.8358C9.03473 12.8358 9.10262 12.8083 9.14636 12.7526C9.18948 12.6976 9.2115 12.6097 9.2115 12.4856V10.4811C9.2115 10.3491 9.18581 10.2503 9.13198 10.1825C9.07632 10.1156 8.99742 10.0818 8.89527 10.0818Z" fill="white"/>
<path id="Vector_4" d="M3.98713 5.79627H4.94865V3.39184L6.06829 0H5.09086L4.49572 2.31688H4.43517L3.81036 0H2.8418L3.98713 3.50002V5.79627Z" fill="white"/>
<path id="Vector_5" d="M7.37043 5.90409C7.75884 5.90409 8.06344 5.79997 8.28547 5.59174C8.50598 5.38256 8.61638 5.09709 8.61638 4.73127V2.52257C8.61638 2.19709 8.50353 1.92913 8.27875 1.72245C8.05243 1.5164 7.76251 1.4126 7.40897 1.4126C7.02056 1.4126 6.71137 1.51078 6.48139 1.70682C6.25202 1.90286 6.13672 2.16582 6.13672 2.49819V4.71439C6.13672 5.07802 6.24896 5.36568 6.47313 5.58142C6.6973 5.79622 6.99702 5.90409 7.37043 5.90409ZM7.01628 2.46567C7.01628 2.37281 7.04901 2.29776 7.11293 2.23898C7.17929 2.18145 7.26339 2.15362 7.36799 2.15362C7.48084 2.15362 7.57228 2.18145 7.64201 2.23898C7.71143 2.29776 7.74599 2.37281 7.74599 2.46567V4.79537C7.74599 4.90949 7.71204 5.00017 7.64323 5.06551C7.57503 5.13118 7.48328 5.16338 7.36799 5.16338C7.25514 5.16338 7.16797 5.13211 7.10681 5.06645C7.04656 5.00235 7.01598 4.91231 7.01598 4.79505L7.01628 2.46567Z" fill="white"/>
<path id="Vector_6" d="M9.90661 5.85873C10.0672 5.85873 10.232 5.81183 10.4017 5.72178C10.5733 5.63048 10.7375 5.49697 10.8938 5.32281V5.79651H11.748V1.52075H10.8938V4.76626C10.8143 4.85912 10.7259 4.93541 10.6311 4.99607C10.5345 5.05611 10.455 5.08612 10.3923 5.08612C10.3121 5.08612 10.2531 5.06361 10.2186 5.01702C10.1834 4.97231 10.1635 4.89914 10.1635 4.79878V1.52075H9.31055V5.09425C9.31055 5.34908 9.3607 5.53949 9.45979 5.66581C9.56071 5.794 9.70813 5.85873 9.90661 5.85873Z" fill="white"/>
</g>
</svg>
