<svg xmlns="http://www.w3.org/2000/svg" width="638" height="126" fill="none" viewBox="0 0 638 126"><path fill="#AFB9AF" d="M595.254 124.225V1.77466H636.932V17.8463H614.186V53.4683H635.802V69.1921H614.186V108.154H637.78V124.225H595.254Z"/><path fill="#AFB9AF" d="M563.837 126C558.786 126 554.561 125.207 551.163 123.621C547.811 121.989 545.147 119.634 543.173 116.555C541.244 113.43 539.866 109.653 539.04 105.222C538.213 100.744 537.8 95.6603 537.8 89.9701V78.9862H555.296V91.3693C555.296 97.9923 555.847 102.75 556.949 105.641C558.051 108.533 560.232 109.979 563.493 109.979C565.697 109.979 567.35 109.466 568.452 108.44C569.6 107.367 570.358 105.688 570.725 103.403C571.139 101.071 571.345 98.039 571.345 94.3077C571.345 89.6903 570.381 85.4693 568.452 81.6448C566.569 77.8202 563.699 73.8558 559.842 69.7514L550.887 60.3766C548.408 57.7647 546.158 54.9896 544.137 52.0512C542.162 49.1129 540.578 45.848 539.384 42.2567C538.236 38.6187 537.662 34.561 537.662 30.0834C537.662 23.6004 538.443 18.1201 540.004 13.6426C541.565 9.16508 544.206 5.78363 547.925 3.49824C551.645 1.1662 556.742 0.000183105 563.217 0.000183105C568.085 0.000183105 572.08 0.769755 575.203 2.3089C578.371 3.8014 580.828 6.01684 582.573 8.9552C584.364 11.8469 585.627 15.3916 586.362 19.5893C587.096 23.7403 587.464 28.4977 587.464 33.8613V41.4871H570.45V32.672C570.45 28.9407 570.243 25.8391 569.83 23.3672C569.463 20.8952 568.751 19.0529 567.695 17.8403C566.638 16.581 565.1 15.9513 563.079 15.9513C561.151 15.9513 559.589 16.3944 558.396 17.2806C557.202 18.1201 556.329 19.4494 555.778 21.2683C555.273 23.0407 555.02 25.3494 555.02 28.1945C555.02 30.7597 555.342 32.9752 555.985 34.8408C556.628 36.7064 557.615 38.5021 558.947 40.2278C560.278 41.9535 561.931 43.8891 563.906 46.0346L573.894 57.0185C578.67 62.2422 582.389 67.6759 585.053 73.3194C587.716 78.9629 589.048 85.2594 589.048 92.2089C589.048 99.5781 588.267 105.781 586.706 110.819C585.145 115.809 582.527 119.587 578.853 122.152C575.18 124.717 570.174 126 563.837 126Z"/><path fill="#AFB9AF" d="M504.513 126C498.153 126 492.976 124.813 488.983 122.441C484.99 120.021 482.065 116.392 480.208 111.553C478.35 106.668 477.422 100.503 477.422 93.0593V1.77466H496.086V92.7103C496.086 96.1533 496.226 99.1775 496.504 101.783C496.829 104.388 497.572 106.412 498.733 107.855C499.894 109.297 501.797 110.018 504.444 110.018C507.09 110.018 508.994 109.32 510.155 107.924C511.362 106.482 512.105 104.458 512.383 101.853C512.662 99.2473 512.801 96.1998 512.801 92.7103V1.77466H531.466V93.0593C531.466 100.503 530.537 106.668 528.68 111.553C526.869 116.392 523.967 120.021 519.974 122.441C516.028 124.813 510.874 126 504.513 126Z"/><path fill="#AFB9AF" d="M416.289 124.225V1.77466H442.789C448.956 1.77466 453.872 2.72551 457.535 4.6272C461.198 6.48251 463.841 9.45101 465.464 13.5327C467.133 17.568 467.968 22.8788 467.968 29.4652V33.2222C467.968 39.5766 467.133 44.8179 465.464 48.946C463.841 53.0277 461.105 55.8802 457.257 57.5036C460.456 58.5704 463.006 60.4953 464.908 63.2783C466.855 66.0148 468.246 69.3776 469.081 73.3665C469.915 77.3091 470.333 81.6459 470.333 86.3769V89.5077C470.286 97.6711 469.336 104.327 467.481 109.476C465.626 114.578 462.728 118.311 458.787 120.677C454.845 123.043 449.698 124.225 443.346 124.225H416.289ZM434.93 109.754H441.537C443.995 109.754 445.942 109.22 447.38 108.154C448.864 107.04 449.93 105.208 450.579 102.657C451.229 100.106 451.553 96.6275 451.553 92.2211V82.3416C451.553 76.4046 450.973 72.091 449.814 69.4008C448.701 66.6642 446.36 65.2959 442.789 65.2959H434.93V109.754ZM434.93 51.3115H441.815C443.438 51.3115 444.76 51.0796 445.78 50.6158C446.8 50.1519 447.588 49.3634 448.145 48.2502C448.701 47.0907 449.072 45.4905 449.258 43.4496C449.49 41.4088 449.606 38.8113 449.606 35.6573V28.2824C449.606 24.9893 449.304 22.4846 448.701 20.7684C448.099 19.0523 447.171 17.8927 445.919 17.2897C444.714 16.6867 443.137 16.3852 441.189 16.3852H434.93V51.3115Z"/><path fill="#AFB9AF" fill-rule="evenodd" d="M317.015 124.225C318.508 123.666 319.879 122.974 321.129 122.15C325.066 119.583 327.938 115.71 329.745 110.53C331.552 105.303 332.455 98.7933 332.455 90.9999V73.5699H314.18V91.2099C314.18 97.6966 313.624 102.433 312.512 105.42C311.4 108.407 309.269 109.9 306.119 109.9C304.035 109.9 302.413 109.27 301.255 108.01C300.097 106.703 299.263 104.697 298.754 101.99C298.29 99.2366 298.059 95.7133 298.059 91.4199V68.6663L279.297 79.2005V90.5799C279.297 98.0933 280.27 104.51 282.216 109.83C284.208 115.103 287.173 119.117 291.11 121.87C292.467 122.818 293.941 123.604 295.534 124.225H317.015ZM222.596 111.037V124.225H241.292V100.54L222.596 111.037ZM332.177 49.5097L331.838 49.7H332.177V49.5097ZM365.36 30.878L396.165 13.5821L413.078 124.225H395.552L392.607 102.379H372.697L370.033 124.225H351.946L365.36 30.878ZM374.52 87.4204H390.644L382.372 25.9169H382.091L374.52 87.4204Z" clip-rule="evenodd"/><path fill="white" d="M162.346 124.225V1.77448H190.529C195.412 1.77448 199.458 2.5166 202.667 4.00085C205.923 5.4851 208.481 7.68828 210.341 10.6104C212.201 13.5325 213.527 17.1504 214.317 21.464C215.108 25.7312 215.503 30.671 215.503 36.2833V38.8575C215.503 46.7426 214.806 53.4681 213.411 59.034C212.062 64.5536 209.62 68.7512 206.086 71.627C202.551 74.5027 197.575 75.9406 191.157 75.9406H181.042V124.225H162.346ZM181.042 60.5647H187.46C190.204 60.5647 192.25 59.8689 193.599 58.4775C194.947 57.086 195.831 54.79 196.249 51.5896C196.715 48.3428 196.947 44.0292 196.947 38.6488V36.2833C196.901 29.6505 196.319 24.6412 195.203 21.2553C194.087 17.8229 191.552 16.1068 187.599 16.1068H181.042V60.5647Z"/><path fill="white" d="M126.676 126C120.331 126 115.144 124.647 111.115 121.942C107.133 119.237 104.192 115.226 102.293 109.909C100.395 104.592 99.4453 98.0155 99.4453 90.1798V33.8612C99.4453 26.7718 100.372 20.7085 102.224 15.6713C104.076 10.6341 107.017 6.7629 111.046 4.05774C115.075 1.35258 120.354 0 126.884 0C131.793 0 135.938 0.769572 139.318 2.30872C142.699 3.84786 145.431 6.08661 147.515 9.02498C149.599 11.9167 151.104 15.4614 152.03 19.6591C153.003 23.8101 153.489 28.5441 153.489 33.8612V90.1798C153.489 98.0155 152.563 104.592 150.71 109.909C148.904 115.226 146.033 119.237 142.097 121.942C138.16 124.647 133.02 126 126.676 126ZM126.676 109.769C128.991 109.769 130.728 109.069 131.885 107.67C133.043 106.271 133.807 104.149 134.178 101.304C134.595 98.4119 134.803 94.7739 134.803 90.3897V33.0216C134.803 27.6579 134.294 23.5302 133.275 20.6385C132.302 17.7002 130.172 16.231 126.884 16.231C123.503 16.231 121.211 17.6535 120.007 20.4986C118.803 23.297 118.201 27.4481 118.201 32.9517V90.3897C118.201 94.8672 118.386 98.5518 118.757 101.444C119.173 104.289 119.984 106.387 121.188 107.74C122.438 109.093 124.267 109.769 126.676 109.769Z"/><path fill="white" d="M64.8585 124.225V17.9157H50.7148V1.77448H96.7849V17.9157H83.1904V124.225H64.8585Z"/><path fill="white" d="M26.8451 126C21.7067 126 17.4091 125.207 13.9523 123.621C10.5423 121.989 7.83296 119.633 5.8243 116.555C3.86236 113.43 2.46097 109.652 1.62014 105.221C0.779305 100.744 0.358889 95.6601 0.358889 89.9699V78.9861H18.1565V91.3692C18.1565 97.9921 18.7171 102.749 19.8382 105.641C20.9593 108.533 23.1781 109.979 26.4948 109.979C28.737 109.979 30.4186 109.466 31.5398 108.44C32.7076 107.367 33.4783 105.688 33.852 103.402C34.2725 101.07 34.4827 98.0388 34.4827 94.3075C34.4827 89.6901 33.5017 85.4691 31.5398 81.6446C29.6245 77.82 26.705 73.8556 22.7811 69.7512L13.6721 60.3764C11.1496 57.7645 8.86064 54.9894 6.80527 52.051C4.79662 49.1127 3.18502 45.8478 1.97048 42.2565C0.802662 38.6185 0.21875 34.5608 0.21875 30.0833C0.21875 23.6002 1.01287 18.1199 2.60111 13.6424C4.18935 9.1649 6.87534 5.78345 10.6591 3.49805C14.4428 1.16602 19.628 0 26.2145 0C31.1661 0 35.2301 0.769572 38.4066 2.30872C41.6297 3.80122 44.1289 6.01665 45.904 8.95502C47.7258 11.8467 49.0104 15.3914 49.7578 19.5891C50.5052 23.7401 50.8789 28.4975 50.8789 33.8612V41.4869H33.5718V32.6718C33.5718 28.9406 33.3616 25.839 32.9411 23.367C32.5674 20.895 31.8434 19.0527 30.769 17.8401C29.6946 16.5808 28.1297 15.9511 26.0743 15.9511C24.1124 15.9511 22.5242 16.3942 21.3096 17.2804C20.0951 18.1199 19.2076 19.4492 18.647 21.2682C18.1332 23.0405 17.8762 25.3492 17.8762 28.1943C17.8762 30.7596 18.2032 32.975 18.8572 34.8406C19.5112 36.7062 20.5155 38.5019 21.8702 40.2276C23.2249 41.9533 24.9065 43.8889 26.9152 46.0344L37.0752 57.0183C41.9334 62.242 45.7171 67.6757 48.4265 73.3192C51.1358 78.9627 52.4905 85.2592 52.4905 92.2087C52.4905 99.5779 51.6964 105.781 50.1081 110.818C48.5199 115.809 45.8573 119.587 42.1202 122.152C38.3832 124.717 33.2915 126 26.8451 126Z"/><path fill="white" fill-rule="evenodd" d="M412.519 4.64746L412.08 1.77461H387.263L384.595 20.3437L412.519 4.64746ZM349.898 39.8465V32.76C349.898 27.72 349.411 23.1933 348.439 19.18C347.512 15.12 346.006 11.6667 343.922 8.81999C341.884 5.97333 339.22 3.80333 335.931 2.31C332.688 0.769999 328.75 0 324.118 0C319.022 0 314.737 0.863333 311.263 2.59C307.789 4.31666 305.009 6.78999 302.924 10.01C300.84 13.23 299.334 17.1033 298.408 21.63C297.481 26.1566 297.018 31.2433 297.018 36.89V69.5699L315.78 59.0241V33.88C315.78 28.3266 316.335 24.01 317.447 20.93C318.605 17.8033 320.875 16.24 324.257 16.24C327.314 16.24 329.353 17.6867 330.372 20.58C331.391 23.4266 331.901 27.8833 331.901 33.95V49.7H332.368L349.898 39.8465ZM259.012 90.9326V75.9407H269.128C275.546 75.9407 280.522 74.5028 284.056 71.6271C287.591 68.7514 290.033 64.5537 291.381 59.0342C292.777 53.4682 293.474 46.7427 293.474 38.8577V36.2834C293.474 30.6711 293.079 25.7313 292.288 21.4641C291.498 17.1505 290.172 13.5326 288.312 10.6105C286.452 7.68842 283.894 5.48523 280.638 4.00098C277.429 2.51673 273.383 1.77461 268.5 1.77461H240.316V101.441L259.012 90.9326ZM265.43 60.5648H259.012V16.1069H265.57C269.523 16.1069 272.058 17.8231 273.174 21.2554C274.29 24.6413 274.871 29.6507 274.918 36.2834V38.6489C274.918 44.0293 274.685 48.3429 274.22 51.5897C273.802 54.7901 272.918 57.0861 271.569 58.4776C270.221 59.8691 268.174 60.5648 265.43 60.5648Z" clip-rule="evenodd"/></svg>